HIERARCHY
ROOT Hips
{
  OFFSET 0 0 0
  CHANNELS 6 Xposition Yposition Zposition Zrotation Yrotation Xrotation
  JOINT LeftThigh
  {
    OFFSET 8.409438 0 -5.917753
    CHANNELS 3 Zrotation Yrotation Xrotation
    JOINT LeftLeg
    {
      OFFSET 0 0 -42.358652
      CHANNELS 3 Zrotation Yrotation Xrotation
      JOINT LeftFoot
      {
        OFFSET 0 0 -39.357303
        CHANNELS 3 Zrotation Yrotation Xrotation
      }
    }
  }
  JOINT RightThigh
  {
    OFFSET -8.409438 0 -5.917753
    CHANNELS 3 Zrotation Yrotation Xrotation
    JOINT RightLeg
    {
      OFFSET 0 0 -42.358652
      CHANNELS 3 Zrotation Yrotation Xrotation
      JOINT RightFoot
      {
        OFFSET 0 0 -39.357303
        CHANNELS 3 Zrotation Yrotation Xrotation
      }
    }
  }
  JOINT SpineLow
  {
    OFFSET 0 0 4.719101
    CHANNELS 3 Zrotation Yrotation Xrotation
    JOINT SpineMid
    {
      OFFSET 0 0 12.899191
      CHANNELS 3 Zrotation Yrotation Xrotation
      JOINT Chest
      {
        OFFSET 0 0 12.899191
        CHANNELS 3 Zrotation Yrotation Xrotation
        JOINT LeftShoulder
        {
          OFFSET 7.550562 1.41573 9.438202
          CHANNELS 3 Zrotation Yrotation Xrotation
          JOINT LeftArm
          {
            OFFSET 9.155056 0 4.247191
            CHANNELS 3 Zrotation Yrotation Xrotation
            JOINT LeftForearm
            {
              OFFSET 0 0 25.771955
              CHANNELS 3 Zrotation Yrotation Xrotation
              JOINT LeftHand
              {
                OFFSET 0 0 25.197169
                CHANNELS 3 Zrotation Yrotation Xrotation
              }
            }
          }
        }
        JOINT RightShoulder
        {
          OFFSET -7.550562 1.41573 9.438202
          CHANNELS 3 Zrotation Yrotation Xrotation
          JOINT RightArm
          {
            OFFSET -9.155056 0 4.247191
            CHANNELS 3 Zrotation Yrotation Xrotation
            JOINT RightForearm
            {
              OFFSET 0 0 -25.771955
              CHANNELS 3 Zrotation Yrotation Xrotation
              JOINT RightHand
              {
                OFFSET 0 0 -25.197169
                CHANNELS 3 Zrotation Yrotation Xrotation
              }
            }
          }
        }
        JOINT Neck
        {
          OFFSET 0 0 15.101124
          CHANNELS 3 Zrotation Yrotation Xrotation
          JOINT Head
          {
            OFFSET 0 0 11.325843
            CHANNELS 3 Zrotation Yrotation Xrotation
            End Site
            {
              OFFSET 0 0 14.157303
            }
          }
        }
      }
    }
  }
}
MOTION
Frames: 7
Frame Time: 0.0
0.0  101.685394  0.0  2.878589  31.740516  -95.453281  -0.97568  -15.004821  0.709023  -19.510073  9.867389  19.289808  -1.099277  2.228995  1.3882  -29.841598  17.288013  -4.877967  -20.505226  10.256057  15.177188  17.545734  5.787483  -1.976776  -0.811574  0.32513  1.463094  -2.197893  0.937306  3.988037  -2.197893  0.937306  3.988037  12.911827  14.650451  14.742276  159.959449  14.230246  179.770852  -19.917637  -19.974476  129.450238  72.880417  -0.733674  -2.343442  27.434275  -10.005363  22.572373  103.45571  64.974725  36.231546  -60.925438  66.841725  -64.870825  79.096252  10.513881  35.095734  -6.751489  0.184262  -3.66506  -5.062723  0.178722  -2.747155  
0.0  101.685394  0.0  2.954084  32.703337  -95.329073  -2.226159  -14.728165  0.154346  -19.852439  9.770888  19.174677  -0.518235  2.463414  1.849483  -29.586522  17.370663  -4.420284  -21.77498  10.286096  14.842439  17.444965  5.707969  -2.017481  -0.795836  0.372054  1.497411  -2.15152  1.06566  4.080594  -2.15152  1.06566  4.080595  12.823682  14.508622  14.348638  159.641378  14.731807  179.985603  -20.209889  -19.981129  129.001998  73.072489  -0.610483  -2.113948  27.630216  -10.190426  22.330108  101.735045  65.597712  34.748027  -60.830602  67.150012  -64.86708  79.221258  10.577536  35.128771  -7.014949  0.116238  -3.652365  -5.260738  0.129131  -2.738367  
0.0  101.685394  0.0  3.027273  33.668741  -95.232884  -3.227783  -14.517467  -0.055273  -20.078465  9.78148  19.206532  -0.317272  2.432453  1.916476  -29.647462  17.46097  -4.085132  -22.556776  10.257411  14.624361  17.27268  5.657981  -2.030554  -0.80068  0.410328  1.511692  -2.16216  1.17098  4.118347  -2.16216  1.17098  4.118347  12.72384  14.530005  14.068883  159.920862  14.860864  -179.983584  -20.057329  -20.334689  129.164817  73.207534  -0.53955  -2.014489  27.649475  -10.270136  22.326828  100.180208  66.193418  33.114311  -60.928209  67.340227  -65.058175  79.346787  10.612964  34.90222  -7.227409  0.065138  -3.574077  -5.420395  0.091143  -2.680232  
0.0  101.685394  0.0  3.112184  34.722739  -95.11699  -4.915975  -14.245816  -0.698246  -19.978572  9.932486  19.588653  0.174555  2.52978  2.141748  -30.01307  17.63543  -3.882207  -23.555359  10.235843  14.447486  17.328211  5.648666  -2.050266  -0.825652  0.451566  1.529351  -2.227507  1.285776  4.164833  -2.227507  1.285776  4.164832  12.552205  14.60803  13.708579  159.906781  15.688888  -179.641784  -19.865521  -20.181181  128.812982  73.305096  -0.482169  -2.013069  27.6801  -10.348878  22.322455  98.608432  66.771446  31.406771  -61.092085  67.325541  -65.395449  79.461811  10.682527  34.484347  -7.480865  0.044063  -3.501124  -5.610615  0.075924  -2.62577  
0.0  101.685394  0.0  3.168545  35.834663  -94.958724  -6.415094  -14.084522  -1.140453  -19.879784  10.115102  19.918352  0.42426  2.531424  2.181259  -30.525494  17.772023  -3.817645  -24.045302  10.178406  14.491255  17.156982  5.671161  -2.079492  -0.869231  0.482064  1.536358  -2.344544  1.372074  4.182082  -2.344544  1.372074  4.182082  12.378768  14.753335  13.364755  159.910403  16.067746  -179.443209  -19.655362  -20.412717  128.925759  73.376072  -0.42537  -2.117749  27.657199  -10.382084  22.33905  97.126876  67.291395  29.697244  -61.245756  67.150914  -65.776865  79.525178  10.786126  34.008959  -7.70639  -0.007979  -3.452954  -5.780056  0.037569  -2.590305  
0.0  101.685394  0.0  3.317191  37.065021  -94.653562  -8.120807  -13.914218  -1.823202  -19.62191  10.344857  20.372638  0.789216  2.624512  2.322088  -31.538818  17.983762  -4.109838  -25.248281  10.21231  14.494508  17.843704  5.838006  -2.050716  -0.935718  0.523085  1.536955  -2.523658  1.488343  4.180798  -2.523658  1.488343  4.180798  12.152553  14.913821  12.934538  159.660591  17.019028  -178.935694  -19.393637  -20.258016  128.527871  73.502645  -0.390792  -2.326434  27.631958  -10.429029  22.303628  95.725343  67.787145  28.090475  -61.339528  66.889683  -66.170368  79.576382  10.843962  33.635712  -8.005624  -0.034314  -3.441013  -6.004637  0.019349  -2.581735  
0.0  101.685394  0.0  3.369221  38.066203  -94.40829  -9.528537  -13.88396  -2.501998  -19.201878  10.619247  20.973461  0.869406  2.652953  2.307131  -32.099145  18.065868  -4.313175  -25.598638  10.259449  14.796721  17.707518  5.962531  -2.098334  -0.981566  0.548347  1.538597  -2.647336  1.560303  4.183261  -2.647336  1.560303  4.18326  11.960695  15.115979  12.499386  159.363464  17.567335  -178.59801  -19.251239  -20.581285  128.467225  73.691494  -0.434324  -2.634991  27.605763  -10.468464  22.238523  94.470719  68.19744  26.608869  -61.499364  66.813589  -66.540325  79.568332  10.874536  33.383602  -8.235353  -0.096199  -3.463495  -6.177294  -0.025479  -2.599477  
